<?xml version="1.0" encoding="UTF-8"?>
<svg id="Layer_2" xmlns="http://www.w3.org/2000/svg" viewBox="0 0 467.17 113.53">
  <defs>
    <style>
      .cls-1 {
        fill: #661300;
      }

      .cls-2 {
        fill: #eb3300;
      }

      .cls-3 {
        fill: #b22200;
      }
    </style>
  </defs>
  <g id="Layer_5">
    <g>
      <g>
        <path d="M39.69.16c-8.19,0-14.98,3.47-19.97,9.47V2.05H0v111.48h21.38v-33.48c4.61,4.58,10.63,7.26,17.8,7.26,19.46,0,33.54-18.63,33.54-43.57S59.28.16,39.69.16ZM36.11,64.1c-9.48,0-15.75-8.21-15.75-20.36s6.4-20.53,15.75-20.53,15.49,8.68,15.49,20.53-6.53,20.36-15.49,20.36Z"/>
        <path d="M132.07,2.49v8.69c-4.73-5.85-11.14-9-19.46-9-19.58,0-33.67,17.05-33.67,41.99s14.09,43.58,33.67,43.58c8.32,0,14.73-3.47,19.46-9.63v7.58h19.72V2.49h-19.72ZM115.69,64.54c-9.09,0-15.5-8.52-15.5-20.37s6.53-20.52,15.5-20.52,15.61,8.37,15.61,20.52-6.27,20.37-15.61,20.37Z"/>
        <path d="M209.31,2.05l-15.62,62.53-13.31-62.53h-22.02l21.5,83.21h7.17l-8.83,28.27h21l8.06-28.27L231.2,2.05h-21.89Z"/>
        <path d="M309.6,42c0-20.53-14.94-42-40.11-42-22.25,0-40.11,19.74-40.11,43.74s16.1,43.57,41.57,43.57c19.18,0,28.84-8.36,34.99-17.05l-18.3-13.1c-3.08,5.52-7.32,8.68-15.96,8.68-9.22,0-16.1-5.05-18.59-14.37h55.92c.29-2.21.59-5.36.59-9.47ZM252.8,35.05c2.05-10.1,8.34-15.31,17.27-15.31s14.79,5.84,16.84,15.31h-34.11Z"/>
        <path d="M358.9,2.05l-14.47,57.32-14.33-57.32h-22.02l23.94,83.21h24.96L380.92,2.05h-22.02Z"/>
      </g>
      <g>
        <rect class="cls-2" x="447.81" y="1.83" width="19.36" height="19.37"/>
        <path d="M467.08,47.48c-.43,6.57-2.34,12.74-5.41,18.16-3.37,5.99-8.14,11.08-13.86,14.83-5.99,3.93-13.04,6.4-20.61,6.9-.94.06-1.88.09-2.84.09s-1.9-.03-2.84-.09c-14.82-.98-27.58-9.48-34.48-21.74-3.06-5.42-4.97-11.58-5.4-18.15-.06-.93-.1-1.88-.1-2.84s.04-1.9.1-2.84c.43-6.56,2.34-12.72,5.4-18.15.47-.84.97-1.66,1.49-2.45,7.16-10.92,19.18-18.37,32.99-19.28v19.45c-10.68,1.29-19.14,9.76-20.43,20.43-.12.93-.18,1.88-.18,2.84s.06,1.91.18,2.84c1.29,10.68,9.75,19.15,20.43,20.44.93.11,1.88.17,2.84.17s1.9-.06,2.84-.17c10.68-1.29,19.15-9.76,20.43-20.44h19.45Z"/>
        <rect class="cls-1" x="447.81" y="21.2" width="19.36" height="20.6"/>
        <rect class="cls-3" x="427.2" y="1.83" width="20.61" height="19.37"/>
      </g>
    </g>
  </g>
</svg>